<?xml version="1.0" encoding="UTF-8" standalone="no"?>
<!-- Created with Inkscape (http://www.inkscape.org/) -->

<svg
   xmlns:dc="http://purl.org/dc/elements/1.1/"
   xmlns:cc="http://creativecommons.org/ns#"
   xmlns:rdf="http://www.w3.org/1999/02/22-rdf-syntax-ns#"
   xmlns:svg="http://www.w3.org/2000/svg"
   xmlns="http://www.w3.org/2000/svg"
   xmlns:xlink="http://www.w3.org/1999/xlink"
   xmlns:sodipodi="http://sodipodi.sourceforge.net/DTD/sodipodi-0.dtd"
   xmlns:inkscape="http://www.inkscape.org/namespaces/inkscape"
   width="850"
   height="850"
   id="svg2"
   sodipodi:version="0.32"
   inkscape:version="0.48.1 r9760"
   version="1.0"
   sodipodi:docname="icon.svg"
   inkscape:output_extension="org.inkscape.output.svg.inkscape"
   inkscape:export-filename="/Users/nicolas/Documents/workspace/fancy-characters/icon16.png"
   inkscape:export-xdpi="1.6900001"
   inkscape:export-ydpi="1.6900001">
  <defs
     id="defs4">
    <linearGradient
       inkscape:collect="always"
       id="linearGradient3778">
      <stop
         style="stop-color:#355587;stop-opacity:1;"
         offset="0"
         id="stop3780" />
      <stop
         style="stop-color:#355587;stop-opacity:0;"
         offset="1"
         id="stop3782" />
    </linearGradient>
    <inkscape:perspective
       sodipodi:type="inkscape:persp3d"
       inkscape:vp_x="0 : 425 : 1"
       inkscape:vp_y="0 : 1000 : 0"
       inkscape:vp_z="850 : 425 : 1"
       inkscape:persp3d-origin="425 : 283.33333 : 1"
       id="perspective2894" />
    <filter
       inkscape:collect="always"
       id="filter3073">
      <feGaussianBlur
         inkscape:collect="always"
         stdDeviation="12.375"
         id="feGaussianBlur3075" />
    </filter>
    <linearGradient
       inkscape:collect="always"
       xlink:href="#linearGradient3778"
       id="linearGradient3784"
       x1="455.32339"
       y1="260.44437"
       x2="800"
       y2="400"
       gradientUnits="userSpaceOnUse" />
  </defs>
  <sodipodi:namedview
     id="base"
     pagecolor="#ffffff"
     bordercolor="#666666"
     borderopacity="1.0"
     gridtolerance="10000"
     guidetolerance="10"
     objecttolerance="10"
     inkscape:pageopacity="0.0"
     inkscape:pageshadow="2"
     inkscape:zoom="0.63057287"
     inkscape:cx="565.37025"
     inkscape:cy="495.93673"
     inkscape:document-units="px"
     inkscape:current-layer="layer1"
     width="850px"
     height="850px"
     showgrid="false"
     inkscape:grid-points="true"
     inkscape:object-points="true"
     inkscape:window-width="1440"
     inkscape:window-height="796"
     inkscape:window-x="0"
     inkscape:window-y="0"
     inkscape:window-maximized="1">
    <inkscape:grid
       type="xygrid"
       id="grid2333"
       originx="0px"
       originy="0px"
       spacingx="0px"
       spacingy="0px"
       empspacing="4" />
    <inkscape:grid
       id="GridFromPre046Settings"
       type="xygrid"
       originx="0px"
       originy="25px"
       spacingx="25px"
       spacingy="25px"
       color="#0000ff"
       empcolor="#0000ff"
       opacity="0.2"
       empopacity="0.4"
       empspacing="4" />
  </sodipodi:namedview>
  <metadata
     id="metadata7">
    <rdf:RDF>
      <cc:Work
         rdf:about="">
        <dc:format>image/svg+xml</dc:format>
        <dc:type
           rdf:resource="http://purl.org/dc/dcmitype/StillImage" />
        <dc:title></dc:title>
        <dc:date>11/December/2007</dc:date>
        <dc:creator>
          <cc:Agent>
            <dc:title>Wikimedia Commons User:Klem</dc:title>
          </cc:Agent>
        </dc:creator>
        <dc:rights>
          <cc:Agent>
            <dc:title>Wikimedia Commons User:Klem</dc:title>
          </cc:Agent>
        </dc:rights>
        <dc:publisher>
          <cc:Agent>
            <dc:title>Wikimedia Commons User:Klem</dc:title>
          </cc:Agent>
        </dc:publisher>
        <dc:subject>
          <rdf:Bag>
            <rdf:li>Yin and Yang</rdf:li>
            <rdf:li>Yin &amp; Yang</rdf:li>
            <rdf:li>Yin</rdf:li>
            <rdf:li>Ying</rdf:li>
            <rdf:li>Yang</rdf:li>
            <rdf:li>yinyang</rdf:li>
            <rdf:li>yingyang</rdf:li>
            <rdf:li>Tiandi Zhiran Hetu</rdf:li>
            <rdf:li>Heaven and Earth’s Natural Diagram of the River</rdf:li>
            <rdf:li>Taijitu</rdf:li>
            <rdf:li>Diagram of the Great Ultimate.</rdf:li>
          </rdf:Bag>
        </dc:subject>
        <dc:contributor>
          <cc:Agent>
            <dc:title>Liu Mu (1011-1064 AD) - Hetu (Diagram of River) and Luoshu (Chart of Luo); 
Shao Yong (1011-1077 AD) - Xiantian tu (Diagram of Preceding Heaven); 
Zhou Dunyi (1017-1073 AD) - Taijitu (Diagram of the Great Ultimate); 
Zhao Huiqian (1351-1395 AD) - Tiandi Zhiran Hetu (Heaven and Earth’s Natural Diagram of the River); 
Wikimedia Commons user Klem</dc:title>
          </cc:Agent>
        </dc:contributor>
        <dc:description>A graphical depiction of Yin and Yang in its conventional orientation - the hot, bright, white yang nature rises while the cold, dark, black yin nature descends.
The symbol is shown over a feather edged grey background for clarity when displayed on black or white.
This representation of the traditional Chinese diagram was created from scratch in Inkscape by Wikicommons user &quot;Klem&quot;.</dc:description>
        <cc:license
           rdf:resource="http://creativecommons.org/licenses/by/3.0/" />
        <dc:relation />
      </cc:Work>
      <cc:License
         rdf:about="http://creativecommons.org/licenses/by/3.0/">
        <cc:permits
           rdf:resource="http://creativecommons.org/ns#Reproduction" />
        <cc:permits
           rdf:resource="http://creativecommons.org/ns#Distribution" />
        <cc:requires
           rdf:resource="http://creativecommons.org/ns#Notice" />
        <cc:requires
           rdf:resource="http://creativecommons.org/ns#Attribution" />
        <cc:permits
           rdf:resource="http://creativecommons.org/ns#DerivativeWorks" />
      </cc:License>
    </rdf:RDF>
  </metadata>
  <g
     inkscape:label="Background"
     inkscape:groupmode="layer"
     id="layer1"
     style="display: inline;">
    <path
       sodipodi:type="arc"
       style="opacity:0.83741377;fill:#7f7f7f;fill-opacity:1;stroke:#7f7f7f;stroke-width:25;stroke-linecap:butt;stroke-miterlimit:4;stroke-opacity:1;stroke-dasharray:none;filter:url(#filter3073)"
       id="pathShadowGlow"
       sodipodi:cx="400"
       sodipodi:cy="400"
       sodipodi:rx="400"
       sodipodi:ry="400"
       d="m 800,400 a 400,400 0 1 1 -800,0 400,400 0 1 1 800,0 z"
       inkscape:label="#Background Shadow/Glow - NOT part of the diagram but necessary for clarity on black or white backgrounds"
       transform="translate(25,31)" />
  </g>
  <g
     inkscape:groupmode="layer"
     id="layer2"
     inkscape:label="Yin and Yang Symbol">
    <g
       id="gYin"
       inkscape:label="#Yin"
       style="fill:url(#linearGradient3784);fill-opacity:1"
       transform="matrix(0,1,-1,0,825,25)">
      <path
         inkscape:connector-curvature="0"
         id="pathYinBG"
         transform="matrix(-1,0,0,-1,825,825)"
         d="M 425,25 C 204.2,25 25,204.2 25,425 25,645.8 204.2,825 425,825 314.6,825 225,735.4 225,625 225,514.6 314.6,425 425,425 535.4,425 625,335.4 625,225 625,114.6 535.4,25 425,25 z m 0,137.5 c 34.5,0 62.5,28 62.5,62.5 0,34.5 -28,62.5 -62.5,62.5 -34.5,0 -62.5,-28 -62.5,-62.5 0,-34.5 28,-62.5 62.5,-62.5 z"
         style="fill:url(#linearGradient3784);fill-opacity:1;stroke:none" />
      <path
         inkscape:label="#Yin Spot"
         d="m 450,200 c 0,27.61424 -22.38576,50 -50,50 -27.61424,0 -50,-22.38576 -50,-50 0,-27.61424 22.38576,-50 50,-50 27.61424,0 50,22.38576 50,50 z"
         sodipodi:ry="50"
         sodipodi:rx="50"
         sodipodi:cy="200"
         sodipodi:cx="400"
         id="pathYinS"
         style="fill:url(#linearGradient3784);fill-opacity:1;stroke:none"
         sodipodi:type="arc"
         transform="matrix(1.25,0,0,1.25,-100,-50)" />
    </g>
    <g
       id="gYang"
       inkscape:label="#Yang"
       transform="matrix(0,-1,1,0,0,850)">
      <path
         inkscape:connector-curvature="0"
         style="fill:#ffffff;fill-opacity:1;stroke:none"
         d="m 425,25 c 110.4,0 200,89.6 200,200 0,110.4 -89.6,200 -200,200 -110.4,0 -200,89.6 -200,200 0,110.4 89.6,200 200,200 C 645.8,825 825,645.8 825,425 825,204.2 645.8,25 425,25 z m 0,537.5 c 34.5,0 62.5,28 62.5,62.5 0,34.5 -28,62.5 -62.5,62.5 -34.5,0 -62.5,-28 -62.5,-62.5 0,-34.5 28,-62.5 62.5,-62.5 z"
         id="pathYangBG" />
      <path
         sodipodi:type="arc"
         style="fill:#ffffff;fill-opacity:1;stroke:none"
         id="pathYangS"
         sodipodi:cx="400"
         sodipodi:cy="200"
         sodipodi:rx="50"
         sodipodi:ry="50"
         d="m 450,200 c 0,27.61424 -22.38576,50 -50,50 -27.61424,0 -50,-22.38576 -50,-50 0,-27.61424 22.38576,-50 50,-50 27.61424,0 50,22.38576 50,50 z"
         transform="matrix(1.25,0,0,-1.25,-75,475)"
         inkscape:label="#Yang Spot" />
    </g>
  </g>
</svg>
